<svg width="640" height="176" viewBox="0 0 640 176" fill="none" xmlns="http://www.w3.org/2000/svg">
<path d="M0 12C0 5.37258 5.37258 0 12 0H628C634.627 0 640 5.37258 640 12V164C640 170.627 634.627 176 628 176H12C5.37259 176 0 170.627 0 164V12Z" fill="url(#paint0_linear_35_37)"/>
<path d="M226.638 81.5498C224.073 79.1957 223.325 74.2498 224.393 70.6667C226.246 72.9257 228.813 73.6416 231.472 74.0451C235.577 74.6687 239.609 74.4356 243.422 72.5517C243.858 72.3363 244.261 72.049 244.738 71.7589C245.096 72.8008 245.189 73.853 245.064 74.9241C244.76 77.5324 243.467 79.5473 241.411 81.0744C240.589 81.6854 239.719 82.2315 238.87 82.8077C236.261 84.5776 235.555 86.6535 236.535 89.6734C236.559 89.7469 236.579 89.8205 236.632 90C235.3 89.4015 234.327 88.53 233.586 87.3843C232.803 86.1747 232.43 84.8369 232.411 83.3897C232.401 82.6852 232.401 81.9744 232.307 81.2801C232.076 79.5872 231.285 78.8291 229.793 78.7853C228.263 78.7408 227.052 79.6904 226.731 81.1867C226.707 81.3012 226.671 81.4147 226.636 81.548L226.638 81.5498Z" fill="url(#paint1_linear_35_37)"/>
<path d="M212 70.0694C212 70.0694 219.594 66.3551 227.21 66.3551L232.952 48.5128C233.167 47.65 233.795 47.0635 234.503 47.0635C235.212 47.0635 235.84 47.65 236.055 48.5128L241.797 66.3551C250.816 66.3551 257.007 70.0694 257.007 70.0694C257.007 70.0694 244.107 34.7858 244.082 34.715C243.712 33.6719 243.087 33 242.244 33H226.764C225.922 33 225.322 33.6719 224.926 34.715C224.899 34.7845 212 70.0694 212 70.0694Z" fill="white"/>
<path d="M292.071 58.72C292.071 61.8466 288.198 63.7139 282.834 63.7139C279.344 63.7139 278.109 62.8454 278.109 61.0215C278.109 59.1108 279.642 58.199 283.132 58.199C286.282 58.199 288.963 58.2423 292.071 58.6332V58.72ZM292.114 54.8552C290.198 54.421 287.303 54.1604 283.856 54.1604C273.81 54.1604 269.086 56.5488 269.086 62.1072C269.086 67.8827 272.32 70.0974 279.812 70.0974C286.154 70.0974 290.453 68.4906 292.028 64.5389H292.283C292.241 65.4943 292.199 66.4496 292.199 67.1879C292.199 69.2288 292.539 69.4025 294.199 69.4025H302.031C301.605 68.1867 301.35 64.7561 301.35 61.8032C301.35 58.6332 301.477 56.2448 301.477 53.0314C301.477 46.4742 297.562 42.3054 285.303 42.3054C280.025 42.3054 274.151 43.2174 269.682 44.5635C270.107 46.3439 270.703 49.9482 271.001 52.2931C274.875 50.4693 280.365 49.6877 284.622 49.6877C290.496 49.6877 292.114 51.0338 292.114 53.7696V54.8552Z" fill="white"/>
<path d="M313.603 60.5438C312.539 60.674 311.091 60.674 309.602 60.674C308.027 60.674 306.58 60.6306 305.6 60.5003C305.6 60.8478 305.558 61.2386 305.558 61.586C305.558 67.0141 309.091 70.184 321.52 70.184C333.225 70.184 337.013 67.0575 337.013 61.5425C337.013 56.3315 334.502 53.7695 323.393 53.205C314.752 52.8141 313.986 51.8588 313.986 50.7732C313.986 49.5139 315.093 48.8625 320.881 48.8625C326.883 48.8625 328.501 49.6876 328.501 51.4246V51.8154C329.352 51.7719 330.884 51.7286 332.459 51.7286C333.949 51.7286 335.566 51.7719 336.503 51.8588C336.503 51.468 336.546 51.1206 336.546 50.8166C336.546 44.4331 331.267 42.3488 321.052 42.3488C309.559 42.3488 305.686 45.1714 305.686 50.6863C305.686 55.6368 308.793 58.7199 319.818 59.1976C327.947 59.4582 328.841 60.3701 328.841 61.6294C328.841 62.9756 327.522 63.5835 321.818 63.5835C315.263 63.5835 313.603 62.6716 313.603 60.8043V60.5438Z" fill="white"/>
<path d="M351.063 37.6591C347.956 40.5686 342.38 43.478 339.273 44.2597C339.315 45.8664 339.315 48.8193 339.315 50.426L342.167 50.4694C342.124 53.5526 342.082 57.2871 342.082 59.7623C342.082 65.5378 345.104 69.8804 354.511 69.8804C358.469 69.8804 361.108 69.4461 364.386 68.7513C364.045 66.6234 363.662 63.3666 363.534 60.8914C361.577 61.5427 359.108 61.8901 356.383 61.8901C352.595 61.8901 351.063 60.848 351.063 57.8516C351.063 55.2462 351.063 52.8143 351.105 50.5563C355.958 50.5997 360.81 50.6865 363.662 50.7734C363.619 48.5153 363.705 45.2584 363.832 43.0872C359.704 43.174 355.064 43.2175 351.233 43.2175C351.276 41.3068 351.318 39.4829 351.361 37.6591H351.063Z" fill="white"/>
<path d="M376.485 49.1232C376.527 46.8651 376.57 44.9544 376.613 43.0871H368.057C368.184 46.8217 368.184 50.6431 368.184 56.2449C368.184 61.8466 368.142 65.7115 368.057 69.4026H377.847C377.676 66.7971 377.634 62.4112 377.634 58.6766C377.634 52.7709 380.018 51.0773 385.423 51.0773C387.935 51.0773 389.723 51.3813 391.297 51.9458C391.34 49.7311 391.766 45.4321 392.021 43.5214C390.403 43.0437 388.616 42.7397 386.445 42.7397C381.805 42.6963 378.4 44.607 376.825 49.1666L376.485 49.1232Z" fill="white"/>
<path d="M419.104 56.071C419.104 60.8043 415.699 63.019 410.336 63.019C405.015 63.019 401.61 60.9346 401.61 56.071C401.61 51.2074 405.058 49.3836 410.336 49.3836C415.656 49.3836 419.104 51.3377 419.104 56.071ZM428 55.8539C428 46.4307 420.679 42.2185 410.336 42.2185C399.95 42.2185 392.885 46.4307 392.885 55.8539C392.885 65.2337 399.482 70.2712 410.293 70.2712C421.19 70.2712 428 65.2337 428 55.8539Z" fill="white"/>
<path d="M194.907 111.167H189.693C187 111.167 185.667 112.5 185.667 115.193V120.42C185.667 123.167 187 124.5 189.693 124.433H194.92C197.667 124.5 199 123.167 198.933 120.407V115.193C199 112.5 197.667 111.167 194.907 111.167ZM195.013 121.513C194.107 121.513 193.227 121.167 192.493 120.553C191.667 121.153 190.667 121.513 189.587 121.513C189.04 121.513 188.587 121.06 188.587 120.513C188.587 119.967 189.04 119.513 189.587 119.513C190.947 119.513 192.08 118.58 192.493 117.3H189.587C189.04 117.3 188.587 116.847 188.587 116.3C188.587 115.753 189.04 115.3 189.587 115.3H191.307C191.36 114.793 191.773 114.393 192.293 114.393C192.813 114.393 193.227 114.793 193.28 115.3H193.627C193.64 115.3 193.653 115.3 193.653 115.3H193.68H195C195.547 115.3 196 115.753 196 116.3C196 116.847 195.56 117.3 195 117.3H194.56C194.44 117.94 194.187 118.54 193.853 119.087C194.213 119.353 194.6 119.513 195.013 119.513C195.56 119.513 196.013 119.967 196.013 120.513C196.013 121.06 195.56 121.513 195.013 121.513Z" fill="#A855F7"/>
<path d="M195 138.833C189.307 138.833 184.667 134.193 184.667 128.5C184.667 127.953 185.12 127.5 185.667 127.5C186.213 127.5 186.667 127.953 186.667 128.5C186.667 132.447 189.413 135.753 193.107 136.62L192.747 136.02C192.467 135.54 192.613 134.927 193.093 134.647C193.56 134.367 194.187 134.513 194.467 134.993L195.867 137.327C196.053 137.633 196.053 138.02 195.88 138.327C195.693 138.633 195.36 138.833 195 138.833Z" fill="#A855F7"/>
<path d="M212.331 121.5C211.785 121.5 211.331 121.047 211.331 120.5C211.331 116.553 208.585 113.247 204.891 112.38L205.251 112.98C205.531 113.46 205.385 114.073 204.905 114.353C204.438 114.633 203.811 114.487 203.531 114.007L202.131 111.673C201.945 111.367 201.945 110.98 202.118 110.673C202.305 110.367 202.638 110.167 202.998 110.167C208.691 110.167 213.331 114.807 213.331 120.5C213.331 121.047 212.878 121.5 212.331 121.5Z" fill="#A855F7"/>
<path d="M205.56 124.302C201.826 124.302 198.786 127.329 198.786 131.075C198.786 134.809 201.813 137.849 205.56 137.849C209.293 137.849 212.333 134.822 212.333 131.075C212.333 127.329 209.306 124.302 205.56 124.302ZM208.866 134.289C208.373 134.529 207.773 134.342 207.52 133.835L207.293 133.382H203.84L203.613 133.835C203.44 134.182 203.08 134.382 202.72 134.382C202.573 134.382 202.413 134.342 202.28 134.275C201.786 134.022 201.586 133.422 201.826 132.929L204.68 127.235C204.853 126.902 205.2 126.689 205.573 126.689C205.946 126.689 206.293 126.902 206.466 127.249L209.32 132.942C209.56 133.435 209.36 134.035 208.866 134.289Z" fill="#A855F7"/>
<path d="M204.839 131.38H206.292L205.559 129.927L204.839 131.38Z" fill="#A855F7"/>
<path d="M240.732 136H235.723L243.356 113.891H249.38L257.001 136H251.992L246.454 118.943H246.281L240.732 136ZM240.419 127.31H252.251V130.959H240.419V127.31ZM272.987 124.147L268.776 124.406C268.704 124.046 268.55 123.722 268.312 123.434C268.075 123.139 267.762 122.905 267.373 122.732C266.991 122.552 266.534 122.463 266.002 122.463C265.289 122.463 264.688 122.614 264.199 122.916C263.71 123.211 263.465 123.607 263.465 124.103C263.465 124.499 263.623 124.834 263.94 125.107C264.257 125.381 264.8 125.6 265.57 125.766L268.571 126.37C270.183 126.702 271.385 127.234 272.177 127.968C272.969 128.702 273.364 129.667 273.364 130.861C273.364 131.948 273.044 132.902 272.404 133.722C271.77 134.543 270.899 135.183 269.791 135.644C268.69 136.097 267.42 136.324 265.98 136.324C263.785 136.324 262.036 135.867 260.734 134.953C259.438 134.032 258.679 132.779 258.456 131.196L262.979 130.959C263.116 131.628 263.447 132.139 263.972 132.491C264.498 132.837 265.171 133.01 265.991 133.01C266.797 133.01 267.445 132.855 267.934 132.545C268.431 132.229 268.683 131.822 268.69 131.326C268.683 130.908 268.506 130.566 268.161 130.3C267.815 130.027 267.283 129.818 266.563 129.674L263.692 129.102C262.072 128.778 260.867 128.216 260.075 127.418C259.291 126.619 258.898 125.6 258.898 124.363C258.898 123.297 259.186 122.38 259.762 121.61C260.345 120.84 261.162 120.246 262.213 119.828C263.271 119.411 264.508 119.202 265.926 119.202C268.021 119.202 269.669 119.645 270.871 120.53C272.08 121.415 272.785 122.621 272.987 124.147ZM285.08 119.418V122.873H275.094V119.418H285.08ZM277.361 115.445H281.96V130.905C281.96 131.329 282.025 131.66 282.155 131.898C282.284 132.128 282.464 132.29 282.694 132.384C282.932 132.477 283.205 132.524 283.515 132.524C283.731 132.524 283.947 132.506 284.162 132.47C284.378 132.427 284.544 132.394 284.659 132.373L285.382 135.795C285.152 135.867 284.828 135.95 284.411 136.043C283.993 136.144 283.486 136.205 282.889 136.227C281.78 136.27 280.809 136.122 279.974 135.784C279.146 135.446 278.502 134.92 278.041 134.208C277.581 133.495 277.354 132.596 277.361 131.509V115.445ZM288.076 136V119.418H292.534V122.311H292.707C293.009 121.282 293.517 120.505 294.229 119.98C294.942 119.447 295.762 119.181 296.691 119.181C296.921 119.181 297.169 119.195 297.436 119.224C297.702 119.253 297.936 119.292 298.137 119.343V123.423C297.921 123.359 297.623 123.301 297.241 123.251C296.86 123.2 296.511 123.175 296.194 123.175C295.518 123.175 294.913 123.323 294.38 123.618C293.855 123.905 293.438 124.309 293.128 124.827C292.826 125.345 292.675 125.942 292.675 126.619V136H288.076ZM307.235 136.324C305.558 136.324 304.108 135.968 302.885 135.255C301.668 134.535 300.729 133.535 300.067 132.254C299.405 130.966 299.074 129.472 299.074 127.774C299.074 126.061 299.405 124.564 300.067 123.283C300.729 121.995 301.668 120.994 302.885 120.282C304.108 119.562 305.558 119.202 307.235 119.202C308.912 119.202 310.359 119.562 311.575 120.282C312.798 120.994 313.741 121.995 314.403 123.283C315.065 124.564 315.396 126.061 315.396 127.774C315.396 129.472 315.065 130.966 314.403 132.254C313.741 133.535 312.798 134.535 311.575 135.255C310.359 135.968 308.912 136.324 307.235 136.324ZM307.257 132.761C308.02 132.761 308.656 132.545 309.167 132.114C309.678 131.675 310.063 131.077 310.323 130.322C310.589 129.566 310.722 128.706 310.722 127.741C310.722 126.777 310.589 125.917 310.323 125.161C310.063 124.406 309.678 123.808 309.167 123.369C308.656 122.93 308.02 122.711 307.257 122.711C306.487 122.711 305.839 122.93 305.313 123.369C304.795 123.808 304.403 124.406 304.137 125.161C303.878 125.917 303.748 126.777 303.748 127.741C303.748 128.706 303.878 129.566 304.137 130.322C304.403 131.077 304.795 131.675 305.313 132.114C305.839 132.545 306.487 132.761 307.257 132.761ZM330.022 113.891V136H325.423V113.891H330.022ZM338.434 136.313C337.376 136.313 336.433 136.13 335.606 135.763C334.778 135.388 334.123 134.838 333.641 134.111C333.166 133.377 332.928 132.463 332.928 131.369C332.928 130.448 333.097 129.674 333.436 129.048C333.774 128.422 334.235 127.918 334.817 127.536C335.4 127.155 336.063 126.867 336.804 126.673C337.552 126.478 338.337 126.342 339.157 126.263C340.122 126.162 340.899 126.068 341.489 125.982C342.079 125.888 342.507 125.752 342.774 125.572C343.04 125.392 343.173 125.125 343.173 124.773V124.708C343.173 124.024 342.957 123.495 342.525 123.121C342.101 122.747 341.496 122.56 340.712 122.56C339.884 122.56 339.226 122.743 338.736 123.11C338.247 123.47 337.923 123.923 337.765 124.47L333.511 124.125C333.727 123.117 334.152 122.247 334.785 121.513C335.418 120.771 336.235 120.203 337.236 119.807C338.243 119.404 339.409 119.202 340.733 119.202C341.655 119.202 342.536 119.31 343.378 119.526C344.228 119.742 344.98 120.077 345.635 120.53C346.297 120.984 346.818 121.566 347.2 122.279C347.581 122.984 347.772 123.83 347.772 124.816V136H343.411V133.701H343.281C343.015 134.219 342.659 134.676 342.212 135.072C341.766 135.46 341.23 135.766 340.604 135.989C339.978 136.205 339.254 136.313 338.434 136.313ZM339.751 133.139C340.428 133.139 341.025 133.006 341.543 132.74C342.061 132.466 342.468 132.099 342.763 131.639C343.058 131.178 343.206 130.656 343.206 130.073V128.314C343.062 128.407 342.864 128.494 342.612 128.573C342.367 128.645 342.09 128.713 341.781 128.778C341.471 128.835 341.162 128.889 340.852 128.94C340.543 128.983 340.262 129.023 340.01 129.059C339.47 129.138 338.999 129.264 338.596 129.436C338.193 129.609 337.88 129.843 337.657 130.138C337.434 130.426 337.322 130.786 337.322 131.218C337.322 131.844 337.549 132.322 338.002 132.653C338.463 132.977 339.046 133.139 339.751 133.139ZM355.939 126.414V136H351.34V119.418H355.723V122.344H355.917C356.284 121.379 356.9 120.616 357.763 120.055C358.627 119.487 359.674 119.202 360.905 119.202C362.056 119.202 363.06 119.454 363.917 119.958C364.773 120.462 365.439 121.181 365.914 122.117C366.389 123.045 366.626 124.154 366.626 125.442V136H362.027V126.263C362.035 125.248 361.776 124.456 361.25 123.888C360.725 123.312 360.001 123.024 359.08 123.024C358.461 123.024 357.914 123.157 357.439 123.423C356.972 123.69 356.604 124.078 356.338 124.589C356.079 125.093 355.946 125.701 355.939 126.414ZM377.721 142.564C376.232 142.564 374.954 142.359 373.889 141.948C372.831 141.545 371.989 140.995 371.363 140.297C370.737 139.598 370.33 138.814 370.143 137.943L374.396 137.371C374.526 137.702 374.731 138.012 375.012 138.299C375.292 138.587 375.663 138.818 376.124 138.99C376.591 139.17 377.16 139.26 377.829 139.26C378.83 139.26 379.654 139.016 380.301 138.526C380.956 138.044 381.284 137.234 381.284 136.097V133.064H381.089C380.888 133.524 380.586 133.96 380.183 134.37C379.78 134.78 379.261 135.115 378.628 135.374C377.995 135.633 377.239 135.763 376.361 135.763C375.116 135.763 373.982 135.475 372.961 134.899C371.946 134.316 371.136 133.427 370.532 132.232C369.934 131.03 369.636 129.512 369.636 127.677C369.636 125.798 369.941 124.229 370.553 122.97C371.165 121.71 371.978 120.768 372.993 120.141C374.015 119.515 375.134 119.202 376.35 119.202C377.279 119.202 378.056 119.361 378.682 119.677C379.308 119.987 379.812 120.375 380.193 120.843C380.582 121.304 380.881 121.757 381.089 122.203H381.262V119.418H385.829V136.162C385.829 137.573 385.483 138.753 384.792 139.703C384.101 140.653 383.144 141.365 381.921 141.84C380.704 142.323 379.305 142.564 377.721 142.564ZM377.818 132.308C378.56 132.308 379.186 132.124 379.697 131.757C380.215 131.383 380.611 130.851 380.884 130.16C381.165 129.462 381.305 128.627 381.305 127.655C381.305 126.684 381.169 125.841 380.895 125.129C380.622 124.409 380.226 123.852 379.708 123.456C379.189 123.06 378.56 122.862 377.818 122.862C377.063 122.862 376.426 123.067 375.908 123.477C375.389 123.88 374.997 124.442 374.731 125.161C374.465 125.881 374.332 126.712 374.332 127.655C374.332 128.612 374.465 129.44 374.731 130.138C375.004 130.829 375.397 131.365 375.908 131.747C376.426 132.121 377.063 132.308 377.818 132.308ZM396.524 136V119.418H401.123V136H396.524ZM398.835 117.281C398.151 117.281 397.564 117.054 397.075 116.601C396.593 116.14 396.352 115.589 396.352 114.949C396.352 114.316 396.593 113.772 397.075 113.319C397.564 112.858 398.151 112.628 398.835 112.628C399.518 112.628 400.101 112.858 400.583 113.319C401.073 113.772 401.317 114.316 401.317 114.949C401.317 115.589 401.073 116.14 400.583 116.601C400.101 117.054 399.518 117.281 398.835 117.281ZM414.383 113.891V136H409.708V118.328H409.579L404.516 121.502V117.356L409.989 113.891H414.383ZM427.885 136.302C426.223 136.302 424.744 136.032 423.448 135.493C422.16 134.946 421.149 134.201 420.415 133.258C419.681 132.315 419.313 131.246 419.313 130.052C419.313 129.13 419.522 128.285 419.94 127.515C420.364 126.738 420.94 126.093 421.667 125.582C422.394 125.064 423.207 124.733 424.107 124.589V124.438C422.926 124.201 421.969 123.628 421.235 122.722C420.501 121.808 420.134 120.746 420.134 119.537C420.134 118.393 420.469 117.374 421.138 116.482C421.807 115.582 422.725 114.877 423.891 114.366C425.064 113.848 426.395 113.589 427.885 113.589C429.375 113.589 430.703 113.848 431.869 114.366C433.042 114.884 433.963 115.593 434.632 116.493C435.302 117.385 435.64 118.4 435.647 119.537C435.64 120.753 435.266 121.815 434.524 122.722C433.783 123.628 432.833 124.201 431.674 124.438V124.589C432.56 124.733 433.362 125.064 434.082 125.582C434.809 126.093 435.384 126.738 435.809 127.515C436.241 128.285 436.46 129.13 436.467 130.052C436.46 131.246 436.09 132.315 435.356 133.258C434.621 134.201 433.607 134.946 432.311 135.493C431.023 136.032 429.548 136.302 427.885 136.302ZM427.885 132.869C428.626 132.869 429.274 132.736 429.828 132.47C430.382 132.196 430.814 131.822 431.124 131.347C431.44 130.865 431.599 130.311 431.599 129.685C431.599 129.044 431.437 128.479 431.113 127.99C430.789 127.493 430.35 127.105 429.796 126.824C429.242 126.536 428.605 126.392 427.885 126.392C427.173 126.392 426.536 126.536 425.974 126.824C425.413 127.105 424.97 127.493 424.646 127.99C424.33 128.479 424.171 129.044 424.171 129.685C424.171 130.311 424.326 130.865 424.636 131.347C424.945 131.822 425.381 132.196 425.942 132.47C426.503 132.736 427.151 132.869 427.885 132.869ZM427.885 122.991C428.504 122.991 429.055 122.866 429.537 122.614C430.019 122.362 430.397 122.013 430.67 121.566C430.944 121.12 431.081 120.606 431.081 120.023C431.081 119.447 430.944 118.943 430.67 118.511C430.397 118.072 430.023 117.73 429.548 117.486C429.073 117.234 428.518 117.108 427.885 117.108C427.259 117.108 426.705 117.234 426.223 117.486C425.74 117.73 425.363 118.072 425.089 118.511C424.823 118.943 424.69 119.447 424.69 120.023C424.69 120.606 424.826 121.12 425.1 121.566C425.373 122.013 425.751 122.362 426.233 122.614C426.716 122.866 427.266 122.991 427.885 122.991ZM444.378 126.414V136H439.779V119.418H444.162V122.344H444.356C444.723 121.379 445.339 120.616 446.202 120.055C447.066 119.487 448.113 119.202 449.344 119.202C450.495 119.202 451.499 119.454 452.356 119.958C453.212 120.462 453.878 121.181 454.353 122.117C454.828 123.045 455.065 124.154 455.065 125.442V136H450.466V126.263C450.474 125.248 450.215 124.456 449.689 123.888C449.164 123.312 448.441 123.024 447.519 123.024C446.9 123.024 446.353 123.157 445.878 123.423C445.411 123.69 445.044 124.078 444.777 124.589C444.518 125.093 444.385 125.701 444.378 126.414Z" fill="white"/>
<defs>
<linearGradient id="paint0_linear_35_37" x1="0" y1="0" x2="604.091" y2="259.57" gradientUnits="userSpaceOnUse">
<stop stop-color="#171717"/>
<stop offset="1" stop-color="#262626"/>
</linearGradient>
<linearGradient id="paint1_linear_35_37" x1="223.922" y1="90" x2="248.723" y2="78.3295" gradientUnits="userSpaceOnUse">
<stop stop-color="#D83333"/>
<stop offset="1" stop-color="#F041FF"/>
</linearGradient>
</defs>
</svg>
