<svg width="64" height="64" viewBox="0 0 64 64" fill="none" xmlns="http://www.w3.org/2000/svg">
<path d="M24.439 51.6976C21.9091 49.385 21.1706 44.5259 22.2246 41.0056C24.0522 43.2251 26.5845 43.9282 29.2074 44.3251C33.2567 44.9375 37.2334 44.7084 40.995 42.8576C41.4253 42.6457 41.823 42.364 42.2932 42.0786C42.6461 43.1026 42.738 44.1364 42.6147 45.1886C42.315 47.751 41.0397 49.7304 39.0115 51.2309C38.2004 51.8311 37.3422 52.3676 36.5046 52.9335C33.9312 54.6728 33.2349 56.7122 34.2019 59.6786C34.2249 59.7514 34.2455 59.8236 34.2974 60C32.9835 59.4117 32.0238 58.5555 31.2925 57.4297C30.5201 56.2419 30.1527 54.9276 30.1333 53.5055C30.1236 52.8134 30.1236 52.1152 30.0306 51.433C29.8033 49.7696 29.0225 49.0249 27.5515 48.982C26.0418 48.9379 24.8476 49.8713 24.5309 51.3411C24.5067 51.4538 24.4716 51.5653 24.4366 51.6963L24.439 51.6976Z" fill="#030712"/>
<path d="M24.439 51.6976C21.9091 49.385 21.1706 44.5259 22.2246 41.0056C24.0522 43.2251 26.5845 43.9282 29.2074 44.3251C33.2567 44.9375 37.2334 44.7084 40.995 42.8576C41.4253 42.6457 41.823 42.364 42.2932 42.0786C42.6461 43.1026 42.738 44.1364 42.6147 45.1886C42.315 47.751 41.0397 49.7304 39.0115 51.2309C38.2004 51.8311 37.3422 52.3676 36.5046 52.9335C33.9312 54.6728 33.2349 56.7122 34.2019 59.6786C34.2249 59.7514 34.2455 59.8236 34.2974 60C32.9835 59.4117 32.0238 58.5555 31.2925 57.4297C30.5201 56.2419 30.1527 54.9276 30.1333 53.5055C30.1236 52.8134 30.1236 52.1152 30.0306 51.433C29.8033 49.7696 29.0225 49.0249 27.5515 48.982C26.0418 48.9379 24.8476 49.8713 24.5309 51.3411C24.5067 51.4538 24.4716 51.5653 24.4366 51.6963L24.439 51.6976Z" fill="url(#paint0_linear_6403_1429)"/>
<path d="M10 40.4192C10 40.4192 17.4914 36.7698 25.0037 36.7698L30.6677 19.2406C30.8798 18.3929 31.4989 17.8168 32.1979 17.8168C32.8969 17.8168 33.5161 18.3929 33.7281 19.2406L39.3922 36.7698C48.2894 36.7698 54.3959 40.4192 54.3959 40.4192C54.3959 40.4192 41.6711 5.75449 41.6463 5.68494C41.2811 4.66007 40.6645 4 39.8333 4H24.5639C23.7327 4 23.141 4.66007 22.7509 5.68494C22.7234 5.75318 10 40.4192 10 40.4192Z" fill="#030712"/>
<defs>
<linearGradient id="paint0_linear_6403_1429" x1="21.7598" y1="60" x2="46.1878" y2="48.4581" gradientUnits="userSpaceOnUse">
<stop stop-color="#D83333"/>
<stop offset="1" stop-color="#F041FF"/>
</linearGradient>
</defs>
</svg>
